# AST/ASF file generated using VICON BodyLanguage
# -----------------------------------------------
:version 1.10
:name VICON
:units
  mass 1.0
  length 0.45
  angle deg
:documentation
   .ast/.asf automatically generated from VICON data using
   VICON BodyBuilder and BodyLanguage model FoxedUp or BRILLIANT.MOD
:root
   order TX TY TZ RX RY RZ
   axis XYZ
   position 0 0 0  
   orientation 0 0 0 
:bonedata
  begin
     id 1 
     name lhipjoint
     direction 0.702568 -0.596508 0.388042 
     length 2.56661 
     axis 0 0 0  XYZ
  end
  begin
     id 2 
     name lfemur
     direction 0.34202 -0.939693 0  
     length 6.58374  
     axis 0 0 20  XYZ
    dof rx ry rz
    limits (-160.0 20.0)
           (-70.0 70.0)
           (-60.0 70.0)
  end
  begin
     id 3 
     name ltibia
     direction 0.34202 -0.939693 0   
     length 6.62538   
     axis 0 0 20   XYZ
    dof rx
    limits (-10.0 170.0)
  end
  begin
     id 4 
     name lfoot
     direction 0.10455 -0.287249 0.952133   
     length 2.26699   
     axis -90 7.62852e-016 20   XYZ
    dof rx rz
    limits (-45.0 90.0)
           (-70.0 20.0)
  end
  begin
     id 5 
     name ltoes
     direction 1.53572e-011 -4.22322e-011 1   
     length 1.12949   
     axis -90 7.62852e-016 20   XYZ
    dof rx
    limits (-90.0 20.0)
  end
  begin
     id 6 
     name rhipjoint
     direction -0.728055 -0.574632 0.373811   
     length 2.66432  
     axis 0 0 0  XYZ 
  end
  begin
     id 7 
     name rfemur
     direction -0.34202 -0.939693 0   
     length 6.66732   
     axis 0 0 -20   XYZ
    dof rx ry rz
    limits (-160.0 20.0)
           (-70.0 70.0)
           (-70.0 60.0)
  end
  begin
     id 8 
     name rtibia
     direction -0.34202 -0.939693 0   
     length 6.59288   
     axis 0 0 -20   XYZ
    dof rx
    limits (-10.0 170.0)
 end
 begin
     id 9 
     name rfoot
     direction -0.119193 -0.327479 0.93731   
     length 2.38061  
     axis -90 -7.62852e-016 -20   XYZ
    dof rx rz
    limits (-45.0 90.0)
           (-20.0 70.0)
  end
  begin
     id 10 
     name rtoes
     direction -1.53547e-011 -4.21827e-011 1   
     length 1.17899   
     axis -90 -7.62852e-016 -20   XYZ
    dof rx
    limits (-90.0 20.0)
  end
  begin
     id 11 
     name lowerback
     direction -0.000416114 0.999912 -0.0132284   
     length 2.12109   
     axis 0 0 0   XYZ
    dof rx ry rz
    limits (-20.0 45.0)
           (-30.0 30.0)
           (-30.0 30.0)
  end
  begin
     id 12 
     name upperback
     direction -0.00136371 0.99809 0.0617608   
     length 2.10067   
     axis 0 0 0   XYZ
    dof rx ry rz
    limits (-20.0 45.0)
           (-30.0 30.0)
           (-30.0 30.0)
  end
  begin
     id 13 
     name thorax
     direction -3.43026e-005 0.997776 0.0666515   
     length 2.10618   
     axis 0 0 0   XYZ
    dof rx ry rz
    limits (-20.0 45.0)
           (-30.0 30.0)
           (-30.0 30.0)
  end
  begin
     id 14 
     name lowerneck
     direction 0.0398646 0.998418 0.0396592   
     length 1.83817   
     axis 0 0 0   XYZ
    dof rx ry rz
    limits (-20.0 45.0)
           (-30.0 30.0)
           (-30.0 30.0)
  end
  begin
     id 15 
     name upperneck
     direction -0.0367268 0.961527 -0.272244   
     length 1.81975   
     axis 0 0 0   XYZ
    dof rx ry rz
    limits (-20.0 45.0)
           (-30.0 30.0)
           (-30.0 30.0)
  end
  begin
     id 16
     name head
     direction -0.0182665 0.99536 -0.0944669  
     length 1.86026  
     axis 0 0 0   XYZ
    dof rx ry rz
    limits (-20.0 45.0)
           (-30.0 30.0)
           (-30.0 30.0)
  end
  begin
     id 17 
     name lclavicle
     direction 0.924239 0.361045 0.124212  
     length 3.26878  
     axis 0 0 0   XYZ
    dof ry rz
    limits (-20.0 10.0)
           (0.0 20.0)
  end
  begin
     id 18 
     name lhumerus
     direction 1 -4.48968e-011 -2.56583e-027   
     length 4.58538   
     axis 180 -30 -90   XYZ
    dof rx ry rz
    limits (-60.0 90.0)
           (-90.0 90.0)
           (-90.0 90.0)
  end
  begin
     id 19
     name lradius
     direction 1 -4.4898e-011 -5.50375e-027   
     length 2.68935   
     axis 180 -30 -90   XYZ
    dof rx
    limits (-10.0 170.0)
  end
  begin
     id 20
     name lwrist
     direction 1 -4.48939e-011 -1.48955e-026   
     length 1.34468   
     axis 9.0955e-015 90 90   XYZ
    dof ry
    limits (-180.0 0.0)
 end
  begin
     id 21 
     name lhand
     direction 1 -4.48936e-011 -2.97907e-026   
     length 0.585058   
     axis 1.90115e-014 90 90   XYZ
    dof rx rz
    limits (-90.0 90.0)
           (-45.0 45.0)
  end
  begin
     id 22 
     name lfingers
     direction 1 -4.49082e-011 -5.96235e-026   
     length 0.471689   
     axis 3.80223e-014 90 90   XYZ
    dof rx
    limits (0.0 90.0)
  end
  begin
     id 23
     name lthumb
     direction 0.707107 -6.3489e-011 0.707107   
     length 0.677253   
     axis -90 45 -3.84942e-014   XYZ
    dof rx rz
    limits (-45.0 45.0)
           (-45.0 45.0)
  end
  begin
     id 24 
     name rclavicle
     direction -0.923098 0.371783 0.0983239   
     length 3.19656  
     axis 0 0 0   XYZ 
    dof ry rz
    limits (-10.0 20.0)
           (-20.0 0.0)
  end
  begin
     id 25 
     name rhumerus
     direction -1 -4.48976e-011 -2.5492e-027  
     length 4.4745   
     axis 180 30 90   XYZ
    dof rx ry rz
    limits (-90.0 60.0)
           (-90.0 90.0)
           (-90.0 90.0)
  end
  begin
     id 26 
     name rradius
     direction -1 -4.48941e-011 -4.36555e-027   
     length 2.93896   
     axis 180 30 90   XYZ
    dof rx
    limits (-10.0 170.0)
  end
  begin
     id 27 
     name rwrist
     direction -1 -4.49044e-011 -1.49032e-026   
     length 1.46948   
     axis 9.0955e-015 -90 -90   XYZ
    dof ry
    limits (-180.0 0.0)
  end
  begin
     id 28
     name rhand
     direction -1 -4.48826e-011 -2.97749e-026   
     length 0.405092   
     axis 1.90115e-014 -90 -90   XYZ
    dof rx rz
    limits (-90.0 90.0)
           (-45.0 45.0)
  end
  begin
     id 29
     name rfingers
     direction -1 -4.49209e-011 -5.96602e-026   
     length 0.326596   
     axis 3.80223e-014 -90 -90   XYZ
    dof rx
    limits (0.0 90.0)
  end
  begin
     id 30
     name rthumb
     direction -0.707107 -6.34776e-011 0.707107   
     length 0.468928   
     axis -90 -45 3.84942e-014   XYZ
    dof rx rz
    limits (-45.0 45.0)
           (-45.0 45.0)
  end
:hierarchy
  begin
    root lhipjoint rhipjoint lowerback
    lhipjoint lfemur
    lfemur ltibia
    ltibia lfoot
    lfoot ltoes
    rhipjoint rfemur
    rfemur rtibia
    rtibia rfoot
    rfoot rtoes
    lowerback upperback
    upperback thorax
    thorax lowerneck lclavicle rclavicle
    lowerneck upperneck
    upperneck head
    lclavicle lhumerus
    lhumerus lradius
    lradius lwrist
    lwrist lhand lthumb
    lhand lfingers
    rclavicle rhumerus
    rhumerus rradius
    rradius rwrist
    rwrist rhand rthumb
    rhand rfingers
  end

#!OML:ASF H:\Punching\Project 1\Capture day 1\Session 1\female.ASF
:FULLY-SPECIFIED
:DEGREES
656
root -0.199011 15.0024 2.95603 1.82449 -14.077 4.28242
lowerback -2.6627 -2.64376 5.47735
upperback -7.30839 -3.61212 -1.80302
thorax -6.62466 -2.20905 -4.83003
lowerneck -5.87273 11.227 14.8797
upperneck 33.2012 19.4074 -15.9004
head 16.0541 8.55192 -6.08593
rclavicle 6.13251e-014 -3.57812e-015
rhumerus 13.101 20.5215 -50.0559
rradius 102.679
rwrist -16.9093
rhand -31.6953 8.50577
rfingers 7.12502
rthumb -4.95452 -21.4163
lclavicle 6.13251e-014 -3.57812e-015
lhumerus -24.1731 -10.6921 71.1731
lradius 135.355
lwrist -2.55445
lhand -29.1017 4.26951
lfingers 7.12502
lthumb -2.44993 34.2352
rfemur -31.2447 10.3503 19.9614
rtibia 51.3516
rfoot -18.0645 -13.1752
rtoes 7.03693
lfemur -43.659 6.07134 -19.1062
ltibia 108.262
lfoot 24.7898 -7.5371
ltoes -5.54175
657
root -0.213765 15.0674 2.98086 0.980355 -14.3953 4.44345
lowerback -2.10971 -2.37833 5.77595
upperback -6.92213 -3.24287 -2.17359
thorax -6.52463 -2.04137 -5.39301
lowerneck -5.71682 11.0757 14.6638
upperneck 33.4733 19.1503 -15.5799
head 16.0103 8.45116 -5.98524
rclavicle 2.69353e-014 -1.23246e-014
rhumerus 13.3392 20.8294 -50.8398
rradius 102.87
rwrist -16.9214
rhand -31.5192 8.52809
rfingers 7.12502
rthumb -4.78447 -21.3979
lclavicle 2.69353e-014 -1.23246e-014
lhumerus -23.546 -10.6471 71.2086
lradius 135.417
lwrist -2.53012
lhand -29.0595 4.11168
lfingers 7.12502
lthumb -2.40919 34.0778
rfemur -29.5588 10.4683 20.009
rtibia 50.0352
rfoot -17.63 -12.894
rtoes 7.06718
lfemur -47.7031 6.65572 -19.5204
ltibia 111.391
lfoot 26.2564 -8.63042
ltoes -5.28903
658
root -0.227428 15.1259 3.00503 0.0726741 -14.7374 4.56245
lowerback -1.48913 -2.11768 6.1039
upperback -6.50685 -2.87202 -2.52328
thorax -6.42511 -1.87098 -5.95423
lowerneck -5.54635 10.926 14.4553
upperneck 33.7327 18.8892 -15.2519
head 15.9578 8.35137 -5.88223
rclavicle -1.50082e-014 3.57812e-015
rhumerus 13.582 21.1426 -51.6639
rradius 103.149
rwrist -16.9334
rhand -31.3682 8.53861
rfingers 7.12502
rthumb -4.63869 -21.3906
lclavicle -1.50082e-014 3.57812e-015
lhumerus -22.8 -10.5072 71.1886
lradius 135.399
lwrist -2.3587
lhand -28.9943 3.36226
lfingers 7.12502
lthumb -2.34622 33.3291
rfemur -27.8192 10.5859 20.1177
rtibia 48.7486
rfoot -17.2064 -12.5866
rtoes 7.08631
lfemur -51.7477 7.29839 -19.8879
ltibia 114.355
lfoot 27.5277 -9.65262
ltoes -4.98313
659
root -0.239921 15.1765 3.02918 -0.913274 -15.1209 4.65414
lowerback -0.794116 -1.86655 6.45091
upperback -6.06909 -2.50503 -2.85423
thorax -6.33727 -1.70051 -6.51055
lowerneck -5.31907 10.7823 14.2726
upperneck 33.9751 18.6347 -14.9253
head 15.8911 8.26085 -5.78398
rclavicle -4.18939e-014 -3.37934e-015
rhumerus 13.835 21.4913 -52.5399
rradius 103.494
rwrist -16.9184
rhand -31.2536 8.5048
rfingers 7.12502
rthumb -4.52802 -21.4268
lclavicle -4.18939e-014 -3.37934e-015
lhumerus -22.0053 -10.3489 71.1378
lradius 135.384
lwrist -2.18942
lhand -28.9271 2.54173
lfingers 7.12502
lthumb -2.2813 32.5093
rfemur -26.0303 10.7009 20.2749
rtibia 47.5194
rfoot -16.8053 -12.2384
rtoes 7.0959
lfemur -55.7723 8.00813 -20.216
ltibia 117.151
lfoot 28.6588 -10.5234
ltoes -4.65946
660
root -0.25169 15.2191 3.05451 -1.99984 -15.5655 4.74068
lowerback -0.0217952 -1.62306 6.80028
upperback -5.59497 -2.1394 -3.17477
thorax -6.24681 -1.52702 -7.06268
lowerneck -5.06088 10.6503 14.1259
upperneck 34.1996 18.3937 -14.6073
head 15.8196 8.18148 -5.6926
rclavicle 3.90612e-014 1.53064e-014
rhumerus 14.1135 21.8742 -53.4609
rradius 103.874
rwrist -16.8329
rhand -31.2149 8.47145
rfingers 7.12502
rthumb -4.49061 -21.4609
lclavicle 3.90612e-014 1.53064e-014
lhumerus -21.1591 -10.1973 71.0453
lradius 135.393
lwrist -2.06754
lhand -28.8736 1.84143
lfingers 7.12502
lthumb -2.2296 31.8095
rfemur -24.1802 10.8111 20.4632
rtibia 46.3638
rfoot -16.4403 -11.8344
rtoes 7.10383
lfemur -59.7473 8.79291 -20.5107
ltibia 119.765
lfoot 29.709 -11.2367
ltoes -4.30305
